<mxfile host="app.diagrams.net" modified="2023-02-17T11:29:50.061Z" agent="5.0 (Macintosh; Intel Mac OS X 10_15_7) AppleWebKit/537.36 (KHTML, like Gecko) Chrome/110.0.0.0 Safari/537.36" etag="JxLeG4Vwhn0-2p6WSUlJ" version="20.2.6" type="github">
  <diagram id="cfrN9-Fz_mpV6MQM8Dh-" name="第 1 页">
    <mxGraphModel dx="2152" dy="793" grid="1" gridSize="10" guides="1" tooltips="1" connect="1" arrows="1" fold="1" page="1" pageScale="1" pageWidth="827" pageHeight="1169" math="0" shadow="0">
      <root>
        <mxCell id="0" />
        <mxCell id="1" parent="0" />
        <mxCell id="FWctSbj35UCG4-DGgTcr-20" value="" style="rounded=1;whiteSpace=wrap;html=1;fontSize=14;dashed=1;fillColor=none;" vertex="1" parent="1">
          <mxGeometry x="541" y="210" width="218" height="130" as="geometry" />
        </mxCell>
        <mxCell id="FWctSbj35UCG4-DGgTcr-1" value="H5 业务" style="rounded=0;whiteSpace=wrap;html=1;fontSize=20;" vertex="1" parent="1">
          <mxGeometry x="200" y="260" width="120" height="60" as="geometry" />
        </mxCell>
        <mxCell id="FWctSbj35UCG4-DGgTcr-2" value="钱包" style="rounded=0;whiteSpace=wrap;html=1;fontSize=20;" vertex="1" parent="1">
          <mxGeometry x="354" y="260" width="120" height="60" as="geometry" />
        </mxCell>
        <mxCell id="FWctSbj35UCG4-DGgTcr-3" value="埋点服务" style="rounded=0;whiteSpace=wrap;html=1;fontSize=20;" vertex="1" parent="1">
          <mxGeometry x="200" y="380" width="120" height="60" as="geometry" />
        </mxCell>
        <mxCell id="FWctSbj35UCG4-DGgTcr-4" value="中台服务" style="text;html=1;strokeColor=none;fillColor=none;align=right;verticalAlign=middle;whiteSpace=wrap;rounded=0;fontSize=20;" vertex="1" parent="1">
          <mxGeometry x="-50" y="392.5" width="90" height="30" as="geometry" />
        </mxCell>
        <mxCell id="FWctSbj35UCG4-DGgTcr-5" value="应用" style="text;html=1;strokeColor=none;fillColor=none;align=right;verticalAlign=middle;whiteSpace=wrap;rounded=0;fontSize=20;" vertex="1" parent="1">
          <mxGeometry x="-50" y="272.5" width="90" height="30" as="geometry" />
        </mxCell>
        <mxCell id="FWctSbj35UCG4-DGgTcr-6" value="数据分析" style="rounded=0;whiteSpace=wrap;html=1;fontSize=20;" vertex="1" parent="1">
          <mxGeometry x="354" y="380" width="120" height="60" as="geometry" />
        </mxCell>
        <mxCell id="FWctSbj35UCG4-DGgTcr-7" value="存储服务" style="text;html=1;strokeColor=none;fillColor=none;align=right;verticalAlign=middle;whiteSpace=wrap;rounded=0;fontSize=20;" vertex="1" parent="1">
          <mxGeometry x="-50" y="517.5" width="90" height="30" as="geometry" />
        </mxCell>
        <mxCell id="FWctSbj35UCG4-DGgTcr-8" value="数仓" style="rounded=0;whiteSpace=wrap;html=1;fontSize=20;" vertex="1" parent="1">
          <mxGeometry x="200" y="505" width="120" height="60" as="geometry" />
        </mxCell>
        <mxCell id="FWctSbj35UCG4-DGgTcr-9" value="" style="endArrow=classic;html=1;rounded=0;fontSize=20;exitX=0.5;exitY=1;exitDx=0;exitDy=0;" edge="1" parent="1" source="FWctSbj35UCG4-DGgTcr-1" target="FWctSbj35UCG4-DGgTcr-3">
          <mxGeometry width="50" height="50" relative="1" as="geometry">
            <mxPoint x="260" y="370" as="sourcePoint" />
            <mxPoint x="310" y="320" as="targetPoint" />
          </mxGeometry>
        </mxCell>
        <mxCell id="FWctSbj35UCG4-DGgTcr-11" value="" style="endArrow=classic;html=1;rounded=0;fontSize=20;exitX=0.5;exitY=1;exitDx=0;exitDy=0;entryX=0.833;entryY=-0.05;entryDx=0;entryDy=0;entryPerimeter=0;" edge="1" parent="1" source="FWctSbj35UCG4-DGgTcr-2" target="FWctSbj35UCG4-DGgTcr-3">
          <mxGeometry width="50" height="50" relative="1" as="geometry">
            <mxPoint x="270" y="330" as="sourcePoint" />
            <mxPoint x="270" y="390" as="targetPoint" />
          </mxGeometry>
        </mxCell>
        <mxCell id="FWctSbj35UCG4-DGgTcr-12" value="" style="endArrow=classic;html=1;rounded=0;fontSize=20;exitX=0.5;exitY=1;exitDx=0;exitDy=0;" edge="1" parent="1">
          <mxGeometry width="50" height="50" relative="1" as="geometry">
            <mxPoint x="259.5" y="445" as="sourcePoint" />
            <mxPoint x="259.5" y="505" as="targetPoint" />
          </mxGeometry>
        </mxCell>
        <mxCell id="FWctSbj35UCG4-DGgTcr-13" value="mongodb" style="rounded=0;whiteSpace=wrap;html=1;fontSize=20;" vertex="1" parent="1">
          <mxGeometry x="510" y="505" width="120" height="60" as="geometry" />
        </mxCell>
        <mxCell id="FWctSbj35UCG4-DGgTcr-14" value="mysql" style="rounded=0;whiteSpace=wrap;html=1;fontSize=20;" vertex="1" parent="1">
          <mxGeometry x="670" y="505" width="120" height="60" as="geometry" />
        </mxCell>
        <mxCell id="FWctSbj35UCG4-DGgTcr-15" value="魔方服务" style="rounded=0;whiteSpace=wrap;html=1;fontSize=20;" vertex="1" parent="1">
          <mxGeometry x="590" y="380" width="120" height="60" as="geometry" />
        </mxCell>
        <mxCell id="FWctSbj35UCG4-DGgTcr-16" value="热力图" style="rounded=0;whiteSpace=wrap;html=1;fontSize=12;" vertex="1" parent="1">
          <mxGeometry x="560" y="280" width="80" height="40" as="geometry" />
        </mxCell>
        <mxCell id="FWctSbj35UCG4-DGgTcr-18" value="移动应用平台" style="rounded=0;whiteSpace=wrap;html=1;fontSize=19;" vertex="1" parent="1">
          <mxGeometry x="950" y="260" width="120" height="60" as="geometry" />
        </mxCell>
        <mxCell id="FWctSbj35UCG4-DGgTcr-19" value="&lt;font style=&quot;font-size: 14px;&quot;&gt;移动应用平台&lt;/font&gt;" style="text;html=1;strokeColor=none;fillColor=none;align=center;verticalAlign=middle;whiteSpace=wrap;rounded=0;fontSize=19;" vertex="1" parent="1">
          <mxGeometry x="585" y="210" width="130" height="30" as="geometry" />
        </mxCell>
        <mxCell id="FWctSbj35UCG4-DGgTcr-21" value="触达图" style="rounded=0;whiteSpace=wrap;html=1;fontSize=12;" vertex="1" parent="1">
          <mxGeometry x="660" y="280" width="80" height="40" as="geometry" />
        </mxCell>
        <mxCell id="FWctSbj35UCG4-DGgTcr-23" value="" style="endArrow=classic;html=1;rounded=0;fontSize=20;entryX=0.5;entryY=1;entryDx=0;entryDy=0;" edge="1" parent="1" target="FWctSbj35UCG4-DGgTcr-6">
          <mxGeometry width="50" height="50" relative="1" as="geometry">
            <mxPoint x="280" y="500" as="sourcePoint" />
            <mxPoint x="269.5" y="515" as="targetPoint" />
          </mxGeometry>
        </mxCell>
        <mxCell id="FWctSbj35UCG4-DGgTcr-24" value="" style="endArrow=classic;html=1;rounded=0;fontSize=20;entryX=0.206;entryY=0.992;entryDx=0;entryDy=0;entryPerimeter=0;exitX=0.5;exitY=0;exitDx=0;exitDy=0;" edge="1" parent="1" source="FWctSbj35UCG4-DGgTcr-6" target="FWctSbj35UCG4-DGgTcr-20">
          <mxGeometry width="50" height="50" relative="1" as="geometry">
            <mxPoint x="300" y="510" as="sourcePoint" />
            <mxPoint x="424" y="450" as="targetPoint" />
          </mxGeometry>
        </mxCell>
        <mxCell id="FWctSbj35UCG4-DGgTcr-25" value="" style="endArrow=classic;html=1;rounded=0;fontSize=20;entryX=0.5;entryY=1;entryDx=0;entryDy=0;" edge="1" parent="1" source="FWctSbj35UCG4-DGgTcr-15" target="FWctSbj35UCG4-DGgTcr-20">
          <mxGeometry width="50" height="50" relative="1" as="geometry">
            <mxPoint x="424" y="390" as="sourcePoint" />
            <mxPoint x="595.9079999999999" y="348.96000000000004" as="targetPoint" />
          </mxGeometry>
        </mxCell>
        <mxCell id="FWctSbj35UCG4-DGgTcr-26" value="" style="endArrow=classic;html=1;rounded=0;fontSize=20;entryX=0.5;entryY=1;entryDx=0;entryDy=0;exitX=0.5;exitY=0;exitDx=0;exitDy=0;" edge="1" parent="1" source="FWctSbj35UCG4-DGgTcr-13" target="FWctSbj35UCG4-DGgTcr-15">
          <mxGeometry width="50" height="50" relative="1" as="geometry">
            <mxPoint x="290" y="510" as="sourcePoint" />
            <mxPoint x="424" y="450" as="targetPoint" />
          </mxGeometry>
        </mxCell>
        <mxCell id="FWctSbj35UCG4-DGgTcr-27" value="" style="endArrow=classic;html=1;rounded=0;fontSize=20;entryX=0.5;entryY=1;entryDx=0;entryDy=0;exitX=0.5;exitY=0;exitDx=0;exitDy=0;" edge="1" parent="1" source="FWctSbj35UCG4-DGgTcr-14" target="FWctSbj35UCG4-DGgTcr-15">
          <mxGeometry width="50" height="50" relative="1" as="geometry">
            <mxPoint x="580" y="515" as="sourcePoint" />
            <mxPoint x="651" y="451.98" as="targetPoint" />
          </mxGeometry>
        </mxCell>
      </root>
    </mxGraphModel>
  </diagram>
</mxfile>
